<svg xmlns="http://www.w3.org/2000/svg" xmlns:xlink="http://www.w3.org/1999/xlink" version="1.1" x="0px" y="0px" viewBox="0 0 100 125" style="enable-background:new 0 0 100 100;" xml:space="preserve"><g><path d="M67.8,80.8V22.7c0-0.8-0.7-1.5-1.5-1.5h-3.7v-2h2.1c2.1,0,3.8-1.7,3.8-3.9c0-2.1-1.7-3.8-3.8-3.8H35.3   c-2.1,0-3.8,1.7-3.8,3.9c0,2.1,1.7,3.8,3.8,3.8h2.1v2h-3.7c-0.8,0-1.5,0.7-1.5,1.5v58.1c-2,0.1-3.7,1.8-3.7,3.9   c0,2.1,1.7,3.8,3.8,3.8h35.3c2.1,0,3.8-1.7,3.8-3.9C71.5,82.6,69.9,80.9,67.8,80.8z M35.2,80.8v-4.5h29.6v4.5H35.2z M40.4,69V24.2   h19.2V69H40.4z M64.8,72v1.3H35.2V72H64.8z M64.8,24.2V69h-2.2V24.2H64.8z M34.5,15.3c0-0.5,0.4-0.8,0.8-0.8h29.4   c0.5,0,0.8,0.4,0.8,0.9c0,0.5-0.4,0.8-0.8,0.8H35.3C34.8,16.2,34.5,15.8,34.5,15.3z M40.4,19.2h19.2v2H40.4V19.2z M37.4,24.2V69   h-2.2V24.2H37.4z M67.7,85.5H32.3c-0.5,0-0.8-0.4-0.8-0.9c0-0.5,0.4-0.8,0.8-0.8h35.3c0.5,0,0.8,0.4,0.8,0.9   C68.5,85.1,68.1,85.5,67.7,85.5z"/><path d="M44.3,32c-0.8,0-1.5,0.7-1.5,1.5V41c0,0.8,0.7,1.5,1.5,1.5s1.5-0.7,1.5-1.5v-7.5C45.8,32.6,45.1,32,44.3,32z"/><path d="M44.3,26.5c-0.8,0-1.5,0.7-1.5,1.5V29c0,0.8,0.7,1.5,1.5,1.5s1.5-0.7,1.5-1.5V28C45.8,27.1,45.1,26.5,44.3,26.5z"/></g><text x="0" y="115" fill="#000000" font-size="5px" font-weight="bold" font-family="'Helvetica Neue', Helvetica, Arial-Unicode, Arial, Sans-serif">Created by Artem  Kovyazin</text><text x="0" y="120" fill="#000000" font-size="5px" font-weight="bold" font-family="'Helvetica Neue', Helvetica, Arial-Unicode, Arial, Sans-serif">from the Noun Project</text></svg>